# xmcd CD database file
#
# Track frame offsets:
#	150
#	13863
#	33959
#	50554
#	71089
#	89355
#	103187
#	119628
#	133987
#	155798
#	170760
#	189206
#	204641
#
# Disc length: 2972 seconds
#
# Revision: 1
# Processed by: cddbd v1.4PL0 Copyright (c) Steve Scherf et al.
# Submitted via: CDex 1.50beta10
#
DISCID=c40b9a0d
DTITLE=Scott Ellison - One Step From The Blues
DYEAR=2000
DGENRE=Blues
TTITLE0=One Step From The Blues
TTITLE1=These Blues Gotta Hold On Me
TTITLE2=Pocket Full Of Love
TTITLE3=I Got My Mojo Workin'
TTITLE4=Diamond In The Dark
TTITLE5=Bury Your Bone At Home
TTITLE6=Don't Push Your Luck
TTITLE7=Ice Storm
TTITLE8=Cryin' Like The Rain
TTITLE9=Pride
TTITLE10=Crawlin' On My Knees
TTITLE11=Take Me With Ya
TTITLE12=Darker Shade Of Blue
EXTD=YEAR: 2000
EXTT0=
EXTT1=
EXTT2=
EXTT3=
EXTT4=
EXTT5=
EXTT6=
EXTT7=
EXTT8=
EXTT9=
EXTT10=
EXTT11=
EXTT12=
PLAYORDER=
